<svg width="136" height="73" viewBox="0 0 136 73" fill="none" xmlns="http://www.w3.org/2000/svg">
<line opacity="0.1" x1="0.5" y1="-2.18557e-08" x2="0.500003" y2="72" stroke="white"/>
<g opacity="0.1">
<line x1="9" y1="2.625" x2="127" y2="2.625" stroke="#F1F1F1" stroke-width="0.75" stroke-dasharray="3.5 3.5"/>
<line x1="9" y1="12.625" x2="127" y2="12.625" stroke="#F1F1F1" stroke-width="0.75" stroke-dasharray="3.5 3.5"/>
<line x1="9" y1="22.625" x2="127" y2="22.625" stroke="#F1F1F1" stroke-width="0.75" stroke-dasharray="3.5 3.5"/>
<line x1="9" y1="32.625" x2="127" y2="32.625" stroke="#F1F1F1" stroke-width="0.75" stroke-dasharray="3.5 3.5"/>
<line x1="9" y1="42.625" x2="127" y2="42.625" stroke="#F1F1F1" stroke-width="0.75" stroke-dasharray="3.5 3.5"/>
<line x1="9" y1="52.625" x2="127" y2="52.625" stroke="#F1F1F1" stroke-width="0.75" stroke-dasharray="3.5 3.5"/>
<line x1="9" y1="62.625" x2="127" y2="62.625" stroke="#F1F1F1" stroke-width="0.75" stroke-dasharray="3.5 3.5"/>
</g>
<line opacity="0.1" x1="136" y1="72.5" y2="72.5" stroke="white"/>
<path d="M9.5 38.4968C12 33 17 19.9968 20.5 19.9968C26.5828 19.9968 31 67.5 36.5 68C42 68.5 46 31.5 51 31.5C56 31.5 59.5 55.5 63 55.5C66.5 55.5 73.5 3.5 78 3.5C82.5 3.5 84 19 87.5 19C91 19 92.5 1.5 96 1.5C99.5 1.5 113 58.5 117 58.5C120.2 58.5 125 32.8312 127 19.9968" stroke="url(#paint0_linear_5115_2747)" stroke-width="0.75"/>
<g filter="url(#filter0_d_5115_2747)">
<circle cx="69.5" cy="32.5" r="2.5" fill="url(#paint1_radial_5115_2747)"/>
<circle cx="69.5" cy="32.5" r="3" stroke="#232323"/>
</g>
<defs>
<filter id="filter0_d_5115_2747" x="62" y="26" width="15" height="15" filterUnits="userSpaceOnUse" color-interpolation-filters="sRGB">
<feFlood flood-opacity="0" result="BackgroundImageFix"/>
<feColorMatrix in="SourceAlpha" type="matrix" values="0 0 0 0 0 0 0 0 0 0 0 0 0 0 0 0 0 0 127 0" result="hardAlpha"/>
<feOffset dy="1"/>
<feGaussianBlur stdDeviation="2"/>
<feComposite in2="hardAlpha" operator="out"/>
<feColorMatrix type="matrix" values="0 0 0 0 0.980392 0 0 0 0 0.886275 0 0 0 0 0.435294 0 0 0 0.25 0"/>
<feBlend mode="normal" in2="BackgroundImageFix" result="effect1_dropShadow_5115_2747"/>
<feBlend mode="normal" in="SourceGraphic" in2="effect1_dropShadow_5115_2747" result="shape"/>
</filter>
<linearGradient id="paint0_linear_5115_2747" x1="127" y1="34.7525" x2="79.5" y2="19" gradientUnits="userSpaceOnUse">
<stop stop-color="white" stop-opacity="0.1"/>
<stop offset="0.5" stop-color="white" stop-opacity="0.6"/>
<stop offset="1" stop-color="white"/>
</linearGradient>
<radialGradient id="paint1_radial_5115_2747" cx="0" cy="0" r="1" gradientUnits="userSpaceOnUse" gradientTransform="translate(67.6625 31.0937) rotate(42.3859) scale(7.24323 18.2803)">
<stop stop-color="#F4E0A3"/>
<stop offset="0.373682" stop-color="#DCBC65"/>
<stop offset="0.638906" stop-color="#CA9F43"/>
<stop offset="0.79386" stop-color="#FEF0A0"/>
<stop offset="1" stop-color="#8E5F1E"/>
</radialGradient>
</defs>
</svg>
